<svg width="600" height="400" viewBox="0 0 600 400" xmlns="http://www.w3.org/2000/svg">
  <!-- Background Elements -->
  <defs>
    <linearGradient id="grad1" x1="0%" y1="0%" x2="100%" y2="100%">
      <stop offset="0%" style="stop-color:#4A90E2;stop-opacity:0.2"/>
      <stop offset="100%" style="stop-color:#9B51E0;stop-opacity:0.2"/>
    </linearGradient>
  </defs>
  
  <!-- Abstract Background Shape -->
  <path d="M50,200 Q150,50 300,200 T550,200" fill="none" stroke="url(#grad1)" stroke-width="2"/>
  
  <!-- Main Computer/Device Icon -->
  <rect x="150" y="100" width="300" height="200" rx="10" fill="#2A2A2A" stroke="#4A4A4A" stroke-width="2"/>
  <rect x="170" y="120" width="260" height="140" rx="5" fill="#1A1A1A"/>
  
  <!-- Code Elements -->
  <g transform="translate(190,140)" fill="#61DAFB">
    <rect width="60" height="10" rx="2" opacity="0.7"/>
    <rect y="20" width="120" height="10" rx="2" opacity="0.5"/>
    <rect y="40" width="90" height="10" rx="2" opacity="0.7"/>
    <rect y="60" width="140" height="10" rx="2" opacity="0.6"/>
    <rect y="80" width="70" height="10" rx="2" opacity="0.8"/>
  </g>
  
  <!-- Decorative Elements -->
  <circle cx="450" cy="100" r="20" fill="#4A90E2" opacity="0.3"/>
  <circle cx="150" cy="300" r="15" fill="#9B51E0" opacity="0.3"/>
  <circle cx="500" cy="250" r="10" fill="#61DAFB" opacity="0.3"/>
  
  <!-- Abstract Connection Lines -->
  <g stroke="#4A4A4A" stroke-width="1" opacity="0.2">
    <line x1="450" y1="100" x2="500" y2="250"/>
    <line x1="150" y1="300" x2="200" y2="250"/>
    <line x1="500" y1="250" x2="450" y2="300"/>
  </g>
</svg>